<svg width="20" height="20" fill="none" xmlns="http://www.w3.org/2000/svg"><path d="M3.5 17h13c.275 0 .5-.225.5-.5v-13c0-.275-.225-.5-.5-.5h-13c-.275 0-.5.225-.5.5v13c0 .275.225.5.5.5z" fill="#fff"/><path clip-rule="evenodd" d="m11.691 10.657-.878 1.286-1.687-2.326a1 1 0 0 0-1.619 0l-2.39 3.296a1 1 0 0 0 .81 1.587h8.146a1 1 0 0 0 .826-1.564l-1.556-2.28a1 1 0 0 0-1.652 0v.001z" stroke="#A6CCC3"/><path clip-rule="evenodd" d="M13.5 7.5a1 1 0 1 0 0-2 1 1 0 0 0 0 2z" stroke="#FF9810"/><path opacity=".67" fill-rule="evenodd" clip-rule="evenodd" d="M3.5 18h13c.827 0 1.5-.673 1.5-1.5v-13c0-.827-.673-1.5-1.5-1.5h-13C2.673 2 2 2.673 2 3.5v13c0 .827.673 1.5 1.5 1.5zM3 3.5a.5.5 0 0 1 .5-.5h13a.5.5 0 0 1 .5.5v13a.5.5 0 0 1-.5.5h-13a.5.5 0 0 1-.5-.5v-13z" fill="#605E5C"/></svg>